<?xml version="1.0" encoding="UTF-8" standalone="no"?>
<!DOCTYPE svg PUBLIC "-//W3C//DTD SVG 1.1//EN" "http://www.w3.org/Graphics/SVG/1.1/DTD/svg11.dtd">
<svg width="100%" height="100%" viewBox="0 0 1200 185" version="1.1" xmlns="http://www.w3.org/2000/svg" xmlns:xlink="http://www.w3.org/1999/xlink" xml:space="preserve" xmlns:serif="http://www.serif.com/" style="fill-rule:evenodd;clip-rule:evenodd;stroke-linejoin:round;stroke-miterlimit:2;">
    <g transform="matrix(1,0,0,1,-418.039758,-901.414758)">
        <g transform="matrix(0.262351,0,0,0.262351,246.330952,728.918899)">
            <g transform="matrix(0.856098,0,0,0.856098,238.436585,83.058537)">
                <path d="M896,671C1122.285,671 1306,854.715 1306,1081C1306,1307.285 1122.285,1491 896,1491C669.715,1491 486,1307.285 486,1081C486,854.715 669.715,671 896,671ZM896,710.643C1100.406,710.643 1266.357,876.594 1266.357,1081C1266.357,1285.406 1100.406,1451.357 896,1451.357C691.594,1451.357 525.643,1285.406 525.643,1081C525.643,876.594 691.594,710.643 896,710.643Z" style="fill:rgb(255,73,82);"/>
            </g>
            <g transform="matrix(3.357596,0,0,3.357596,1482.595761,-1231.677029)">
                <g transform="matrix(183.333333,0,0,183.333333,-48.24827,736.258503)">
                </g>
                <text x="-231.582px" y="736.259px" style="font-family:'Natsume';font-size:183.333px;fill:rgb(255,73,82);">絆</text>
            </g>
        </g>
        <g transform="matrix(1,0,0,1,475.210242,472)">
            <g transform="matrix(160,0,0,160,147,560.08)">
                <path d="M0.163,-0.179L0.163,-0.293L0.416,-0.563L0.549,-0.563L0.549,-0.551L0.163,-0.179ZM0.065,0L0.065,-0.563L0.167,-0.563L0.167,0L0.065,0ZM0.444,-0L0.232,-0.292L0.306,-0.364L0.561,-0.012L0.561,-0L0.444,-0Z" style="fill:white;fill-rule:nonzero;"/>
            </g>
            <g transform="matrix(160,0,0,160,237.933584,560.08)">
                <path d="M0.049,-0L0.049,-0.411L0.151,-0.411L0.151,-0L0.049,-0ZM0.1,-0.464C0.078,-0.464 0.063,-0.469 0.055,-0.481C0.048,-0.492 0.044,-0.505 0.044,-0.52C0.044,-0.535 0.048,-0.548 0.055,-0.559C0.063,-0.57 0.078,-0.575 0.1,-0.575C0.123,-0.575 0.138,-0.57 0.145,-0.559C0.152,-0.548 0.155,-0.535 0.155,-0.52C0.155,-0.505 0.152,-0.492 0.145,-0.481C0.138,-0.469 0.123,-0.464 0.1,-0.464Z" style="fill:white;fill-rule:nonzero;"/>
            </g>
            <g transform="matrix(160,0,0,160,268.227217,560.08)">
                <path d="M0.035,-0L0.035,-0.074L0.284,-0.337L0.049,-0.337L0.049,-0.413L0.403,-0.413L0.403,-0.339L0.159,-0.076L0.403,-0.076L0.403,-0L0.035,-0Z" style="fill:white;fill-rule:nonzero;"/>
            </g>
            <g transform="matrix(160,0,0,160,337.774023,560.08)">
                <path d="M0.18,0.01C0.151,0.01 0.128,0.005 0.11,-0.004C0.091,-0.013 0.077,-0.026 0.067,-0.041C0.056,-0.056 0.048,-0.073 0.044,-0.092C0.039,-0.111 0.036,-0.129 0.035,-0.148C0.033,-0.167 0.033,-0.185 0.033,-0.201L0.033,-0.411L0.132,-0.411L0.132,-0.201C0.132,-0.18 0.134,-0.161 0.138,-0.142C0.142,-0.124 0.151,-0.109 0.164,-0.097C0.177,-0.086 0.196,-0.08 0.223,-0.08C0.249,-0.08 0.269,-0.086 0.282,-0.098C0.295,-0.109 0.304,-0.124 0.309,-0.143C0.314,-0.161 0.317,-0.179 0.317,-0.198L0.317,-0.411L0.422,-0.411L0.422,-0L0.335,-0L0.318,-0.078L0.316,-0.078C0.314,-0.074 0.311,-0.067 0.306,-0.058C0.301,-0.048 0.293,-0.038 0.283,-0.028C0.272,-0.018 0.259,-0.009 0.242,-0.001C0.225,0.006 0.204,0.01 0.18,0.01Z" style="fill:white;fill-rule:nonzero;"/>
            </g>
            <g transform="matrix(160,0,0,160,409.88084,560.08)">
                <path d="M0.037,-0L0.037,-0.411L0.124,-0.411L0.141,-0.322L0.143,-0.322C0.144,-0.324 0.146,-0.329 0.151,-0.339C0.155,-0.348 0.162,-0.358 0.173,-0.369C0.183,-0.38 0.197,-0.39 0.214,-0.398C0.232,-0.407 0.254,-0.411 0.281,-0.411C0.31,-0.411 0.334,-0.406 0.353,-0.396C0.371,-0.387 0.386,-0.374 0.396,-0.358C0.406,-0.343 0.414,-0.326 0.418,-0.307C0.423,-0.288 0.425,-0.269 0.426,-0.25C0.427,-0.232 0.428,-0.215 0.428,-0.199L0.428,-0L0.328,-0L0.328,-0.2C0.328,-0.222 0.326,-0.242 0.322,-0.26C0.317,-0.278 0.309,-0.293 0.296,-0.304C0.284,-0.315 0.265,-0.321 0.239,-0.321C0.212,-0.321 0.192,-0.315 0.178,-0.302C0.164,-0.29 0.155,-0.275 0.149,-0.256C0.144,-0.237 0.141,-0.217 0.141,-0.196L0.141,-0L0.037,-0Z" style="fill:white;fill-rule:nonzero;"/>
            </g>
            <g transform="matrix(160,0,0,160,482.841035,560.08)">
                <path d="M0.178,0.01C0.14,0.01 0.11,0.001 0.087,-0.017C0.064,-0.034 0.047,-0.059 0.037,-0.09C0.026,-0.122 0.021,-0.158 0.021,-0.2C0.021,-0.242 0.026,-0.279 0.037,-0.311C0.048,-0.343 0.065,-0.368 0.088,-0.386C0.111,-0.403 0.141,-0.412 0.178,-0.412C0.202,-0.412 0.222,-0.409 0.238,-0.402C0.255,-0.396 0.268,-0.388 0.278,-0.378C0.289,-0.368 0.296,-0.359 0.302,-0.35C0.308,-0.341 0.311,-0.334 0.313,-0.329L0.315,-0.329L0.315,-0.411L0.42,-0.411L0.42,-0L0.332,-0L0.315,-0.067L0.313,-0.067C0.312,-0.062 0.308,-0.056 0.302,-0.047C0.296,-0.039 0.288,-0.03 0.278,-0.022C0.267,-0.013 0.254,-0.005 0.237,0.001C0.221,0.007 0.201,0.01 0.178,0.01ZM0.22,-0.076C0.245,-0.076 0.264,-0.082 0.278,-0.092C0.292,-0.103 0.301,-0.118 0.307,-0.137C0.312,-0.155 0.315,-0.176 0.315,-0.199C0.315,-0.223 0.312,-0.245 0.306,-0.263C0.301,-0.282 0.291,-0.296 0.277,-0.306C0.264,-0.317 0.244,-0.322 0.22,-0.322C0.194,-0.322 0.174,-0.316 0.159,-0.305C0.145,-0.294 0.135,-0.279 0.13,-0.261C0.124,-0.242 0.121,-0.222 0.121,-0.199C0.121,-0.177 0.124,-0.156 0.13,-0.137C0.135,-0.119 0.145,-0.104 0.16,-0.093C0.174,-0.082 0.194,-0.076 0.22,-0.076Z" style="fill:white;fill-rule:nonzero;"/>
            </g>
            <g transform="matrix(160,0,0,160,553.774629,560.08)">
            </g>
            <g transform="matrix(160,0,0,160,587.107783,560.08)">
                <path d="M0.136,-0.018L0.136,-0.545L0.237,-0.545L0.237,-0.018L0.136,-0.018ZM0.06,-0L0.06,-0.087L0.311,-0.087L0.311,-0L0.06,-0ZM0.06,-0.475L0.06,-0.563L0.311,-0.563L0.311,-0.475L0.06,-0.475Z" style="fill:white;fill-rule:nonzero;"/>
            </g>
            <g transform="matrix(160,0,0,160,646.041475,560.08)">
                <path d="M0.037,-0L0.037,-0.411L0.124,-0.411L0.141,-0.322L0.143,-0.322C0.144,-0.324 0.146,-0.329 0.151,-0.339C0.155,-0.348 0.162,-0.358 0.173,-0.369C0.183,-0.38 0.197,-0.39 0.214,-0.398C0.232,-0.407 0.254,-0.411 0.281,-0.411C0.31,-0.411 0.334,-0.406 0.353,-0.396C0.371,-0.387 0.386,-0.374 0.396,-0.358C0.406,-0.343 0.414,-0.326 0.418,-0.307C0.423,-0.288 0.425,-0.269 0.426,-0.25C0.427,-0.232 0.428,-0.215 0.428,-0.199L0.428,-0L0.328,-0L0.328,-0.2C0.328,-0.222 0.326,-0.242 0.322,-0.26C0.317,-0.278 0.309,-0.293 0.296,-0.304C0.284,-0.315 0.265,-0.321 0.239,-0.321C0.212,-0.321 0.192,-0.315 0.178,-0.302C0.164,-0.29 0.155,-0.275 0.149,-0.256C0.144,-0.237 0.141,-0.217 0.141,-0.196L0.141,-0L0.037,-0Z" style="fill:white;fill-rule:nonzero;"/>
            </g>
            <g transform="matrix(160,0,0,160,719.00167,560.08)">
                <path d="M0.049,-0L0.049,-0.411L0.151,-0.411L0.151,-0L0.049,-0ZM0.1,-0.464C0.078,-0.464 0.063,-0.469 0.055,-0.481C0.048,-0.492 0.044,-0.505 0.044,-0.52C0.044,-0.535 0.048,-0.548 0.055,-0.559C0.063,-0.57 0.078,-0.575 0.1,-0.575C0.123,-0.575 0.138,-0.57 0.145,-0.559C0.152,-0.548 0.155,-0.535 0.155,-0.52C0.155,-0.505 0.152,-0.492 0.145,-0.481C0.138,-0.469 0.123,-0.464 0.1,-0.464Z" style="fill:white;fill-rule:nonzero;"/>
            </g>
            <g transform="matrix(160,0,0,160,750.095303,560.08)">
                <path d="M0.172,-0C0.139,-0 0.115,-0.008 0.099,-0.024C0.082,-0.04 0.074,-0.066 0.074,-0.102L0.074,-0.35L0.169,-0.35L0.169,-0.08L0.265,-0.08L0.265,-0L0.172,-0ZM0.012,-0.339L0.012,-0.411C0.027,-0.411 0.038,-0.412 0.048,-0.414C0.057,-0.416 0.065,-0.42 0.071,-0.427C0.076,-0.433 0.081,-0.444 0.083,-0.458C0.086,-0.472 0.087,-0.491 0.087,-0.516L0.169,-0.516L0.169,-0.411L0.263,-0.411L0.263,-0.339L0.012,-0.339Z" style="fill:white;fill-rule:nonzero;"/>
            </g>
            <g transform="matrix(160,0,0,160,797.295586,560.08)">
                <path d="M0.049,-0L0.049,-0.411L0.151,-0.411L0.151,-0L0.049,-0ZM0.1,-0.464C0.078,-0.464 0.063,-0.469 0.055,-0.481C0.048,-0.492 0.044,-0.505 0.044,-0.52C0.044,-0.535 0.048,-0.548 0.055,-0.559C0.063,-0.57 0.078,-0.575 0.1,-0.575C0.123,-0.575 0.138,-0.57 0.145,-0.559C0.152,-0.548 0.155,-0.535 0.155,-0.52C0.155,-0.505 0.152,-0.492 0.145,-0.481C0.138,-0.469 0.123,-0.464 0.1,-0.464Z" style="fill:white;fill-rule:nonzero;"/>
            </g>
            <g transform="matrix(160,0,0,160,827.589219,560.08)">
                <path d="M0.178,0.01C0.14,0.01 0.11,0.001 0.087,-0.017C0.064,-0.034 0.047,-0.059 0.037,-0.09C0.026,-0.122 0.021,-0.158 0.021,-0.2C0.021,-0.242 0.026,-0.279 0.037,-0.311C0.048,-0.343 0.065,-0.368 0.088,-0.386C0.111,-0.403 0.141,-0.412 0.178,-0.412C0.202,-0.412 0.222,-0.409 0.238,-0.402C0.255,-0.396 0.268,-0.388 0.278,-0.378C0.289,-0.368 0.296,-0.359 0.302,-0.35C0.308,-0.341 0.311,-0.334 0.313,-0.329L0.315,-0.329L0.315,-0.411L0.42,-0.411L0.42,-0L0.332,-0L0.315,-0.067L0.313,-0.067C0.312,-0.062 0.308,-0.056 0.302,-0.047C0.296,-0.039 0.288,-0.03 0.278,-0.022C0.267,-0.013 0.254,-0.005 0.237,0.001C0.221,0.007 0.201,0.01 0.178,0.01ZM0.22,-0.076C0.245,-0.076 0.264,-0.082 0.278,-0.092C0.292,-0.103 0.301,-0.118 0.307,-0.137C0.312,-0.155 0.315,-0.176 0.315,-0.199C0.315,-0.223 0.312,-0.245 0.306,-0.263C0.301,-0.282 0.291,-0.296 0.277,-0.306C0.264,-0.317 0.244,-0.322 0.22,-0.322C0.194,-0.322 0.174,-0.316 0.159,-0.305C0.145,-0.294 0.135,-0.279 0.13,-0.261C0.124,-0.242 0.121,-0.222 0.121,-0.199C0.121,-0.177 0.124,-0.156 0.13,-0.137C0.135,-0.119 0.145,-0.104 0.16,-0.093C0.174,-0.082 0.194,-0.076 0.22,-0.076Z" style="fill:white;fill-rule:nonzero;"/>
            </g>
            <g transform="matrix(160,0,0,160,898.522812,560.08)">
                <path d="M0.172,-0C0.139,-0 0.115,-0.008 0.099,-0.024C0.082,-0.04 0.074,-0.066 0.074,-0.102L0.074,-0.35L0.169,-0.35L0.169,-0.08L0.265,-0.08L0.265,-0L0.172,-0ZM0.012,-0.339L0.012,-0.411C0.027,-0.411 0.038,-0.412 0.048,-0.414C0.057,-0.416 0.065,-0.42 0.071,-0.427C0.076,-0.433 0.081,-0.444 0.083,-0.458C0.086,-0.472 0.087,-0.491 0.087,-0.516L0.169,-0.516L0.169,-0.411L0.263,-0.411L0.263,-0.339L0.012,-0.339Z" style="fill:white;fill-rule:nonzero;"/>
            </g>
            <g transform="matrix(160,0,0,160,945.723096,560.08)">
                <path d="M0.049,-0L0.049,-0.411L0.151,-0.411L0.151,-0L0.049,-0ZM0.1,-0.464C0.078,-0.464 0.063,-0.469 0.055,-0.481C0.048,-0.492 0.044,-0.505 0.044,-0.52C0.044,-0.535 0.048,-0.548 0.055,-0.559C0.063,-0.57 0.078,-0.575 0.1,-0.575C0.123,-0.575 0.138,-0.57 0.145,-0.559C0.152,-0.548 0.155,-0.535 0.155,-0.52C0.155,-0.505 0.152,-0.492 0.145,-0.481C0.138,-0.469 0.123,-0.464 0.1,-0.464Z" style="fill:white;fill-rule:nonzero;"/>
            </g>
            <g transform="matrix(160,0,0,160,978.096729,560.08)">
                <path d="M0.321,-0.411L0.421,-0.411L0.421,-0.394L0.28,-0L0.138,-0L-0.003,-0.393L-0.003,-0.411L0.095,-0.411L0.21,-0.084L0.212,-0.084L0.321,-0.411Z" style="fill:white;fill-rule:nonzero;"/>
            </g>
            <g transform="matrix(160,0,0,160,1045.297061,560.08)">
                <path d="M0.229,0.01C0.182,0.01 0.143,-0 0.113,-0.02C0.084,-0.041 0.062,-0.067 0.048,-0.099C0.033,-0.131 0.026,-0.164 0.025,-0.199C0.025,-0.24 0.032,-0.277 0.049,-0.309C0.065,-0.342 0.088,-0.367 0.119,-0.385C0.149,-0.404 0.185,-0.413 0.226,-0.413C0.263,-0.413 0.296,-0.405 0.325,-0.389C0.354,-0.373 0.377,-0.351 0.394,-0.322C0.411,-0.293 0.42,-0.259 0.421,-0.219C0.421,-0.217 0.421,-0.214 0.421,-0.208L0.421,-0.193L0.122,-0.193C0.122,-0.155 0.132,-0.126 0.15,-0.105C0.169,-0.085 0.195,-0.075 0.227,-0.075C0.252,-0.075 0.274,-0.081 0.29,-0.094C0.307,-0.106 0.318,-0.123 0.321,-0.144L0.42,-0.144C0.417,-0.115 0.408,-0.089 0.392,-0.066C0.376,-0.042 0.355,-0.024 0.327,-0.01C0.3,0.003 0.267,0.01 0.229,0.01ZM0.125,-0.239L0.319,-0.239C0.318,-0.244 0.317,-0.251 0.315,-0.261C0.313,-0.271 0.308,-0.281 0.302,-0.292C0.295,-0.302 0.285,-0.311 0.273,-0.319C0.261,-0.326 0.244,-0.33 0.224,-0.33C0.204,-0.33 0.188,-0.326 0.175,-0.32C0.163,-0.313 0.153,-0.305 0.146,-0.295C0.139,-0.285 0.134,-0.275 0.131,-0.265C0.128,-0.255 0.126,-0.246 0.125,-0.239Z" style="fill:white;fill-rule:nonzero;"/>
            </g>
            <g transform="matrix(160,0,0,160,1117.670508,560.08)">
                <path d="M0.096,-0C0.072,-0 0.056,-0.006 0.047,-0.018C0.039,-0.03 0.035,-0.045 0.035,-0.062C0.035,-0.078 0.039,-0.092 0.048,-0.104C0.056,-0.116 0.072,-0.122 0.096,-0.122C0.119,-0.122 0.134,-0.116 0.143,-0.104C0.151,-0.092 0.155,-0.078 0.155,-0.062C0.155,-0.044 0.151,-0.03 0.143,-0.018C0.134,-0.006 0.119,-0 0.096,-0Z" style="fill:rgb(255,73,82);fill-rule:nonzero;"/>
            </g>
            <g transform="matrix(160,0,0,160,1151.270859,560.08)">
            </g>
        </g>
    </g>
</svg>
